<svg xmlns="http://www.w3.org/2000/svg" version="1.0" viewBox="0 0 142 142" fill="#01a1f7">
  <path d="M61 .7c-19.5 3.4-35 12.7-46.8 28C9.7 34.5 3.5 48.1 1.7 56.2c-3.1 13.9-.9 32.5 5.4 45.2 7.6 15.2 18 25.8 32.6 33 38.9 19.2 85.3-.5 99.1-42.1 2.2-6.8 2.6-9.5 2.5-21.3 0-11.9-.3-14.4-2.6-21.5-6.8-20.6-22.8-37.4-42.8-44.9-3.6-1.3-8-2.7-9.9-3.1C81.5.7 64.3.1 61 .7zm15.4 13.7c1.8.7 4.2 2.5 5.3 4 1.2 1.4 2.9 2.6 3.8 2.6 3.2 0 9.3 4.2 11.4 8 2.3 4.2 3 15.5 1.1 19.1-.8 1.4-.7 2.5.5 4.1 2.1 3.1 1.9 5.2-1 8.6-1.4 1.7-2.5 4.3-2.5 5.8 0 2-1.4 4.4-4.4 7.7-3.7 4.2-4.3 5.4-4.1 8.8.1 2.2.8 4.6 1.6 5.3.8.7 8.3 4.4 16.7 8.1 8.3 3.8 15.3 7.2 15.3 7.7.6 3.4.4 9.5-.3 10.4-.5.6-3.9.9-9 .7-4.6-.2-26.1-.5-47.8-.6-21.8-.2-40.1-.6-40.6-1-1.3-.8-1.1-11 .2-11.4.5-.2 8.6-3.7 17.9-7.7 16.9-7.4 17-7.4 17.2-10.8.2-2.7-.6-4.2-4.7-8.8-4.6-5-5.5-6.8-5.1-9.4.1-.5-.9-2.1-2.2-3.5-3.6-3.8-4.1-6.4-1.7-9.4 1.5-1.9 1.8-3.1 1.2-4.4-.5-1-.9-5.2-.8-9.4.1-6.7.5-8 3-11.3 1.6-2.1 4.5-4.6 6.5-5.5 3.1-1.4 3.6-2 3.3-4.5-.2-1.6.2-3.2 1-3.7 2.1-1.4 14.6-1 18.2.5z"/>
  <path d="M61 17.4c0 .4.7 1.8 1.6 3.1 2.1 3.1 1.1 4.5-3.2 4.5-2.5 0-4.4.9-7.1 3.4-3.6 3.3-3.7 3.6-3.9 11-.2 7.3.6 10 2.2 7.5.4-.7.6-3 .6-5.3-.3-7.2.1-7.6 7.1-6.9 7.2.8 18.6.9 27.2.3l6-.5.1 5.8c.1 3.2.4 6.1.7 6.4 2.9 2.8 3.8-11 1.1-15.7-2-3.2-6.3-6-9.4-6-1.4 0-3.6-1.5-5.5-3.7-3-3.5-3.6-3.7-10.4-4.1-3.9-.2-7.1-.1-7.1.2z"/>
  <path d="M82.5 39.1c-2.7.3-10.1.4-16.2.2L55 39v4.7c0 2.9-.6 5.3-1.6 6.5-1.2 1.3-1.7 3.9-1.8 9.5l-.2 7.8 7 7.2 6.9 7.3h12.4l6.7-7 6.6-7v-8.4c0-6.1-.4-8.7-1.5-9.6-.8-.7-1.5-3.4-1.7-6.3l-.3-5.2-5 .6zm-6.9 10c1 1.7-5.6 14.8-7.3 14.2-1.9-.7-1.7-2 1.7-9.1 2.9-6.1 4.2-7.3 5.6-5.1zm9.6 4.3c1.7 1.8 1.6 2-.5 4.7-1.2 1.5-2.8 3-3.5 3.3-2 .9-2.6-2.3-.8-4.2 1.4-1.7 1.4-1.9-.1-3.4-.9-1-1.3-2.4-.9-3.3.5-1.5.9-1.5 2.4-.4.9.8 2.5 2.2 3.4 3.3zM64 51.2c0 .6-.7 1.9-1.5 2.8-1.4 1.5-1.4 1.8 0 3 1.7 1.4 2 3.6.6 4.4-1.1.7-7.1-4.1-7.1-5.7 0-.6 1-2.1 2.2-3.4 2.3-2.4 5.8-3.1 5.8-1.1zm3.7 17.7c.3 2.4-3.2 3.5-5.2 1.5-1.7-1.7-1-4.1 1.3-4.7 2.1-.4 3.5.7 3.9 3.2zm6.3 1.2c-1.4 2.5-4.4 1.7-4.8-1.4-.2-1.8.2-2.7 1.5-2.9 2.5-.6 4.5 2 3.3 4.3zm6.8-1.2c-.3 2.6-2.3 3.5-4.5 1.9-1.4-1.1-1.1-3.7.7-4.8 2.2-1.4 4.1.1 3.8 2.9zM46.5 55.9c-.3.5-.1 1.2.5 1.6.5.3 1-.1 1-.9 0-1.8-.6-2.1-1.5-.7zM80.6 84.6c-.5 1.3-2.1 1.5-9.6 1.2-5.6-.2-9 .1-9 .7 0 .5 1.7 2.1 3.7 3.5s4.2 3 4.8 3.7c1 .9 2.5.4 6.7-2.3 4.3-2.6 5.6-4 5.6-5.9 0-2.8-1.3-3.3-2.2-.9z"/>
  <path d="M42.1 98.1c-8.5 3.8-15.9 7.3-16.4 7.8-.5.5-.6 1.7-.3 2.8.6 1.8 2.4 1.9 38.4 2.2 20.7.2 41.1.4 45.2.5 7.3.1 7.5.1 7.5-2.4 0-1.8-.9-2.9-3.5-4.3-7.9-4-27.3-12.7-28.2-12.7-.6 0-3.6 1.6-6.8 3.5-3.2 1.9-6.2 3.5-6.6 3.5-.5 0-3.1-1.8-5.9-4-2.7-2.2-5.7-3.9-6.5-3.9-.8.1-8.4 3.2-16.9 7zm32.6 4.5c.8 2-2.1 4.9-4.1 4.1-.9-.4-1.6-1.8-1.6-3.2 0-2 .5-2.5 2.5-2.5 1.4 0 2.8.7 3.2 1.6z"/>
</svg>
